<svg xmlns="http://www.w3.org/2000/svg" viewBox="0 0 20 20" height="20" width="20"><title>airport.svg</title><rect fill="none" x="0" y="0" width="20" height="20"></rect><path fill="#ffffff" transform="translate(2 2)" d="M 7,15 V 14.458058 L 4,15 V 14 L 6.5205203,13 6.4996995,8.5003005 0,9 V 8 L 6.4372371,6 6.4788787,1 7.6038035,0 8.6252254,1 8.5419422,6 15,8 V 9 L 8.6044046,8.5003005 V 13 L 11,14 v 1 L 8,14.458058 V 15 Z" style="stroke-linejoin:round;stroke-miterlimit:4;" stroke="#ffffff" stroke-width="2"></path><path fill="#000" transform="translate(2 2)" d="M 7,15 V 14.458058 L 4,15 V 14 L 6.5205203,13 6.4996995,8.5003005 0,9 V 8 L 6.4372371,6 6.4788787,1 7.6038035,0 8.6252254,1 8.5419422,6 15,8 V 9 L 8.6044046,8.5003005 V 13 L 11,14 v 1 L 8,14.458058 V 15 Z"></path></svg>