<svg xmlns="http://www.w3.org/2000/svg" width="20" height="20" viewBox="0 0 20 20"><title>chapel.svg</title><rect width="20" height="20" x="0" y="0" fill="none"/><path fill="#fff" stroke="#fff" stroke-width="2" d="m 7.5094558,8 a 3.4945458,3.501503 0 1 1 0,7.003006 3.4945458,3.5015031 0 0 1 0,-7.003006 z m 0,0.7782674 a 2.7178246,2.7232355 0 1 0 0,5.4464706 2.7178246,2.7232355 0 0 0 0,-5.4464706 z" transform="translate(2 2)" style="stroke-linejoin:round;stroke-miterlimit:4"/><path fill="#fff" stroke="#fff" stroke-width="2" d="M 7,8.4622652 V 4 H 4 V 3 H 7 V 0 h 1 v 3 h 3 V 4 H 8 v 4.4414444 z" transform="translate(2 2)" style="stroke-linejoin:round;stroke-miterlimit:4"/><path fill="#000" d="m 7.5094558,8 a 3.4945458,3.501503 0 1 1 0,7.003006 3.4945458,3.5015031 0 0 1 0,-7.003006 z m 0,0.7782674 a 2.7178246,2.7232355 0 1 0 0,5.4464706 2.7178246,2.7232355 0 0 0 0,-5.4464706 z" transform="translate(2 2)"/><path fill="#000" d="M 7,8.4622652 V 4 H 4 V 3 H 7 V 0 h 1 v 3 h 3 V 4 H 8 v 4.4414444 z" transform="translate(2 2)"/></svg>