<svg xmlns="http://www.w3.org/2000/svg" viewBox="0 0 20 20" height="20" width="20"><title>chapel.svg</title><rect fill="none" x="0" y="0" width="20" height="20"></rect><path fill="#ffffff" transform="translate(2 2)" d="m 7.5094558,8 a 3.4945458,3.501503 0 1 1 0,7.003006 3.4945458,3.5015031 0 0 1 0,-7.003006 z m 0,0.7782674 a 2.7178246,2.7232355 0 1 0 0,5.4464706 2.7178246,2.7232355 0 0 0 0,-5.4464706 z" style="stroke-linejoin:round;stroke-miterlimit:4;" stroke="#ffffff" stroke-width="2"></path><path fill="#ffffff" transform="translate(2 2)" d="M 7,8.4622652 V 4 H 4 V 3 H 7 V 0 h 1 v 3 h 3 V 4 H 8 v 4.4414444 z" style="stroke-linejoin:round;stroke-miterlimit:4;" stroke="#ffffff" stroke-width="2"></path><path fill="#000" transform="translate(2 2)" d="m 7.5094558,8 a 3.4945458,3.501503 0 1 1 0,7.003006 3.4945458,3.5015031 0 0 1 0,-7.003006 z m 0,0.7782674 a 2.7178246,2.7232355 0 1 0 0,5.4464706 2.7178246,2.7232355 0 0 0 0,-5.4464706 z"></path><path fill="#000" transform="translate(2 2)" d="M 7,8.4622652 V 4 H 4 V 3 H 7 V 0 h 1 v 3 h 3 V 4 H 8 v 4.4414444 z"></path></svg>