<svg xmlns="http://www.w3.org/2000/svg" viewBox="0 0 20 20" height="20" width="20"><title>chimney.svg</title><rect fill="none" x="0" y="0" width="20" height="20"></rect><path fill="#ffffff" transform="translate(2 2)" d="M 5,15 V 14 H 6 V 4 h 2 v 10 h 1 v 1 z" style="stroke-linejoin:round;stroke-miterlimit:4;" stroke="#ffffff" stroke-width="2"></path><path fill="#ffffff" transform="translate(2 2)" d="M 8,2 V 3 H 9 V 2 Z" style="stroke-linejoin:round;stroke-miterlimit:4;" stroke="#ffffff" stroke-width="2"></path><path fill="#ffffff" transform="translate(2 2)" d="M 9,1 V 0 h 1 l 1,1 v 1 h -1 z" style="stroke-linejoin:round;stroke-miterlimit:4;" stroke="#ffffff" stroke-width="2"></path><path fill="#000" transform="translate(2 2)" d="M 5,15 V 14 H 6 V 4 h 2 v 10 h 1 v 1 z"></path><path fill="#000" transform="translate(2 2)" d="M 8,2 V 3 H 9 V 2 Z"></path><path fill="#000" transform="translate(2 2)" d="M 9,1 V 0 h 1 l 1,1 v 1 h -1 z"></path></svg>