<svg xmlns="http://www.w3.org/2000/svg" viewBox="0 0 21 21" height="21" width="21"><title>circle.svg</title><rect fill="none" x="0" y="0" width="21" height="21"></rect><path fill="#ffffff" transform="translate(2 2)" d="m 8,4 c 5.314797,-0.00119 5.314797,7.976391 0,7.977582 C 2.6884542,11.97552 2.6884542,3.9979381 8,4 Z m 0,0.7806431 c -4.1345315,-0.00197 -4.1345315,6.5202619 0,6.5222269 4.130605,-0.002 4.130605,-6.5241908 0,-6.5222269 z" style="stroke-linejoin:round;stroke-miterlimit:4;" stroke="#ffffff" stroke-width="2"></path><path fill="#ffffff" transform="translate(2 2)" d="M 5,10.338983 10,5.4661017 10.555085,6 5.7669492,10.788136 Z" style="stroke-linejoin:round;stroke-miterlimit:4;" stroke="#ffffff" stroke-width="2"></path><path fill="#ffffff" transform="translate(2 2)" d="M 10.233051,10.605932 5.4279661,6 6,5.4237288 10.597458,10 Z" style="stroke-linejoin:round;stroke-miterlimit:4;" stroke="#ffffff" stroke-width="2"></path><path fill="#000" transform="translate(2 2)" d="m 8,4 c 5.314797,-0.00119 5.314797,7.976391 0,7.977582 C 2.6884542,11.97552 2.6884542,3.9979381 8,4 Z m 0,0.7806431 c -4.1345315,-0.00197 -4.1345315,6.5202619 0,6.5222269 4.130605,-0.002 4.130605,-6.5241908 0,-6.5222269 z"></path><path fill="#000" transform="translate(2 2)" d="M 5,10.338983 10,5.4661017 10.555085,6 5.7669492,10.788136 Z"></path><path fill="#000" transform="translate(2 2)" d="M 10.233051,10.605932 5.4279661,6 6,5.4237288 10.597458,10 Z"></path></svg>