<svg xmlns="http://www.w3.org/2000/svg" width="20" height="20" viewBox="0 0 20 20"><title>communication_tower.svg</title><rect width="20" height="20" x="0" y="0" fill="none"/><path fill="#fff" stroke="#fff" stroke-width="2" d="m 7.5094558,8 a 3.4945458,3.501503 0 1 1 0,7.003006 3.4945458,3.5015031 0 0 1 0,-7.003006 z m 0,0.7782674 a 2.7178246,2.7232355 0 1 0 0,5.4464706 2.7178246,2.7232355 0 0 0 0,-5.4464706 z" transform="translate(2 2)" style="stroke-linejoin:round;stroke-miterlimit:4"/><path fill="#fff" stroke="#fff" stroke-width="2" d="M 6.7501503,8.1671675 6,6 9,5 8.3539538,3.1671675 6.125526,3.9167167 7.7501503,0.16716752 11.52052,2.1671675 9.4788786,2.8536532 10.472868,5.7769816 7.4954921,6.734739 8.0416417,8.1671675 Z" transform="translate(2 2)" style="stroke-linejoin:round;stroke-miterlimit:4"/><path fill="#000" d="m 7.5094558,8 a 3.4945458,3.501503 0 1 1 0,7.003006 3.4945458,3.5015031 0 0 1 0,-7.003006 z m 0,0.7782674 a 2.7178246,2.7232355 0 1 0 0,5.4464706 2.7178246,2.7232355 0 0 0 0,-5.4464706 z" transform="translate(2 2)"/><path fill="#000" d="M 6.7501503,8.1671675 6,6 9,5 8.3539538,3.1671675 6.125526,3.9167167 7.7501503,0.16716752 11.52052,2.1671675 9.4788786,2.8536532 10.472868,5.7769816 7.4954921,6.734739 8.0416417,8.1671675 Z" transform="translate(2 2)"/></svg>