<svg xmlns="http://www.w3.org/2000/svg" viewBox="0 0 19 19" height="19" width="19"><title>hydro.svg</title><rect fill="none" x="0" y="0" width="19" height="19"></rect><path fill="#0064c8" transform="translate(2 2)" d="m 7.4777481,0 c 4.1329859,-9.5734833e-4 7.4839309,3.3614448 7.4839309,7.509509 0,4.148064 -3.350945,7.510466 -7.4839309,7.509509 C 3.34639,15.017665 -0.00201423,11.655939 -0.00201423,7.509509 -0.00201423,3.3630787 3.34639,0.00135336 7.4777481,0 Z M 7.4569273,1.0028476 C 4.242496,1.0020033 0.99079978,4.3249923 0.99079978,7.5511504 c 0,3.2261586 3.27251712,6.4450426 6.48694832,6.4441986 3.2132419,-8.44e-4 6.4839029,-3.219234 6.4839029,-6.4441986 0,-3.2249643 -3.291482,-6.5474588 -6.5047237,-6.5483028 z"></path><path fill="#0064c8" transform="translate(2 2)" d="m 6,2 6,6 H 5 l 3,3 2,-2 v 4 H 6 L 7,12 2,7 H 9 L 5,3 Z"></path></svg>