<svg xmlns="http://www.w3.org/2000/svg" viewBox="0 0 64 64" height="64" width="64"><title>marsh.svg</title><rect fill="none" x="0" y="0" width="64" height="64"></rect><path fill="#7acad0" transform="translate(0 0)" d="m 19,51 h -7 v 1 h 7 z"></path><path fill="#7acad0" transform="translate(0 0)" d="m 21,60 h -7 v 1 h 7 z"></path><path fill="#7acad0" transform="translate(0 0)" d="m 29,50 h -5 v 1 h 5 z"></path><path fill="#7acad0" transform="translate(0 0)" d="m 54,44 h -6 v 1 h 6 z"></path><path fill="#7acad0" transform="translate(0 0)" d="m 44,56 h -6 v 1.041341 h 6 z"></path><path fill="#7acad0" transform="translate(0 0)" d="m 60,49 h -7 v 1 h 7 z"></path><path fill="#7acad0" transform="translate(0 0)" d="m 62,41 h -7 v 1 h 7 z"></path><path fill="#7acad0" transform="translate(0 0)" d="m 44,32 h -6 v 1 h 6 z"></path><path fill="#7acad0" transform="translate(0 0)" d="m 35,35 h -6 v 1 h 6 z"></path><path fill="#7acad0" transform="translate(0 0)" d="m 23,26 h -7 v 1 h 7 z"></path><path fill="#7acad0" transform="translate(0 0)" d="m 20,20 h -7 v 1 h 7 z"></path><path fill="#7acad0" transform="translate(0 0)" d="m 32,20 h -5 v 1 h 5 z"></path><path fill="#7acad0" transform="translate(0 0)" d="m 45,42 h -7 v 1 h 7 z"></path><path fill="#7acad0" transform="translate(0 0)" d="M 13,44 H 9 v 1 h 4 z"></path><path fill="#7acad0" transform="translate(0 0)" d="M 13,37 H 6 v 1 h 7 z"></path><path fill="#7acad0" transform="translate(0 0)" d="m 63,33 h -7 v 1 h 7 z"></path><path fill="#7acad0" transform="translate(0 0)" d="m 52,25 h -7 v 1 h 7 z"></path><path fill="#7acad0" transform="translate(0 0)" d="m 41,16 h -7 v 1 h 7 z"></path><path fill="#7acad0" transform="translate(0 0)" d="m 29,43 h -4 v 1 h 4 z"></path><path fill="#7acad0" transform="translate(0 0)" d="m 61,60 h -7 v 1 h 7 z"></path><path fill="#7acad0" transform="translate(0 0)" d="m 64,19 h -7 v 1 h 7 z"></path><path fill="#7acad0" transform="translate(0 0)" d="m 52,14 h -7 v 1 h 7 z"></path><path fill="#7acad0" transform="translate(0 0)" d="m 63,3 h -7 v 1 h 7 z"></path><path fill="#7acad0" transform="translate(0 0)" d="m 52,7 h -7 v 1 h 7 z"></path><path fill="#7acad0" transform="translate(0 0)" d="m 49,19 h -4 v 1 h 4 z"></path><path fill="#7acad0" transform="translate(0 0)" d="m 38,3 h -7 v 1 h 7 z"></path><path fill="#7acad0" transform="translate(0 0)" d="m 34,10 h -6 v 1 h 6 z"></path><path fill="#7acad0" transform="translate(0 0)" d="m 29,14 h -7 v 1 h 7 z"></path><path fill="#7acad0" transform="translate(0 0)" d="m 39,38 h -7 v 1 h 7 z"></path><path fill="#7acad0" transform="translate(0 0)" d="M 11,4 H 5 v 1 h 6 z"></path><path fill="#7acad0" transform="translate(0 0)" d="m 16,9 h -4 v 1 h 4 z"></path><path fill="#7acad0" transform="translate(0 0)" d="M 12,24 H 5 v 1.041341 h 7 z"></path></svg>