<svg xmlns="http://www.w3.org/2000/svg" viewBox="0 0 64 64" height="64" width="64"><title>meadow.svg</title><rect fill="none" x="0" y="0" width="64" height="64"></rect><path fill="#a0b384" transform="translate(0 0)" d="M 2,9 V 5 h 1 v 4 z"></path><path fill="#a0b384" transform="translate(0 0)" d="M 5,9 V 5 h 1 v 4 z"></path><path fill="#a0b384" transform="translate(0 0)" d="m 20,19 v -4 h 1 v 4 z"></path><path fill="#a0b384" transform="translate(0 0)" d="m 23,19 v -4 h 1 v 4 z"></path><path fill="#a0b384" transform="translate(0 0)" d="M 35,13 V 9 h 1 v 4 z"></path><path fill="#a0b384" transform="translate(0 0)" d="M 38,13 V 9 h 1 v 4 z"></path><path fill="#a0b384" transform="translate(0 0)" d="M 55,4 V 0 h 1 v 4 z"></path><path fill="#a0b384" transform="translate(0 0)" d="M 58,4 V 0 h 1 v 4 z"></path><path fill="#a0b384" transform="translate(0 0)" d="m 42,29 v -4 h 1 v 4 z"></path><path fill="#a0b384" transform="translate(0 0)" d="m 45,29 v -4 h 1 v 4 z"></path><path fill="#a0b384" transform="translate(0 0)" d="m 12,31 v -4 h 1 v 4 z"></path><path fill="#a0b384" transform="translate(0 0)" d="m 15,31 v -4 h 1 v 4 z"></path><path fill="#a0b384" transform="translate(0 0)" d="m 12,64 v -4 h 1 v 4 z"></path><path fill="#a0b384" transform="translate(0 0)" d="m 15,64 v -4 h 1 v 4 z"></path><path fill="#a0b384" transform="translate(0 0)" d="m 40,63 v -4 h 1 v 4 z"></path><path fill="#a0b384" transform="translate(0 0)" d="m 43,63 v -4 h 1 v 4 z"></path><path fill="#a0b384" transform="translate(0 0)" d="m 4,54 v -4 h 1 v 4 z"></path><path fill="#a0b384" transform="translate(0 0)" d="m 7,54 v -4 h 1 v 4 z"></path><path fill="#a0b384" transform="translate(0 0)" d="m 26,40 v -4 h 1 v 4 z"></path><path fill="#a0b384" transform="translate(0 0)" d="m 29,40 v -4 h 1 v 4 z"></path><path fill="#a0b384" transform="translate(0 0)" d="m 53,19 v -4 h 1 v 4 z"></path><path fill="#a0b384" transform="translate(0 0)" d="m 56,19 v -4 h 1 v 4 z"></path><path fill="#a0b384" transform="translate(0 0)" d="m 56,36 v -4 h 1 v 4 z"></path><path fill="#a0b384" transform="translate(0 0)" d="m 59,36 v -4 h 1 v 4 z"></path><path fill="#a0b384" transform="translate(0 0)" d="m 54,58 v -4 h 1 v 4 z"></path><path fill="#a0b384" transform="translate(0 0)" d="m 57,58 v -4 h 1 v 4 z"></path><path fill="#a0b384" transform="translate(0 0)" d="m 38,47 v -4 h 1 v 4 z"></path><path fill="#a0b384" transform="translate(0 0)" d="m 41,47 v -4 h 1 v 4 z"></path><path fill="#a0b384" transform="translate(0 0)" d="m 22,55 v -4 h 1 v 4 z"></path><path fill="#a0b384" transform="translate(0 0)" d="m 25,55 v -4 h 1 v 4 z"></path><path fill="#a0b384" transform="translate(0 0)" d="m 4,42 v -4 h 1 v 4 z"></path><path fill="#a0b384" transform="translate(0 0)" d="m 7,42 v -4 h 1 v 4 z"></path><path fill="#a0b384" transform="translate(0 0)" d="M 18,4 V 0 h 1 v 4 z"></path><path fill="#a0b384" transform="translate(0 0)" d="M 21,4 V 0 h 1 v 4 z"></path></svg>