<svg xmlns="http://www.w3.org/2000/svg" viewBox="0 0 64 64" height="64" width="64"><title>reedbed.svg</title><rect fill="none" x="0" y="0" width="64" height="64"></rect><path fill="#a0b384" transform="translate(0 0)" d="M 2,9 V 5 h 1 v 4 z"></path><path fill="#a0b384" transform="translate(0 0)" d="M 5,9 V 5 h 1 v 4 z"></path><path fill="#a0b384" transform="translate(0 0)" d="m 20,19 v -4 h 1 v 4 z"></path><path fill="#a0b384" transform="translate(0 0)" d="m 23,19 v -4 h 1 v 4 z"></path><path fill="#a0b384" transform="translate(0 0)" d="M 35,13 V 9 h 1 v 4 z"></path><path fill="#a0b384" transform="translate(0 0)" d="M 38,13 V 9 h 1 v 4 z"></path><path fill="#a0b384" transform="translate(0 0)" d="M 55,4 V 0 h 1 v 4 z"></path><path fill="#a0b384" transform="translate(0 0)" d="M 58,4 V 0 h 1 v 4 z"></path><path fill="#a0b384" transform="translate(0 0)" d="m 42,29 v -4 h 1 v 4 z"></path><path fill="#a0b384" transform="translate(0 0)" d="m 45,29 v -4 h 1 v 4 z"></path><path fill="#a0b384" transform="translate(0 0)" d="m 12,31 v -4 h 1 v 4 z"></path><path fill="#a0b384" transform="translate(0 0)" d="m 15,31 v -4 h 1 v 4 z"></path><path fill="#a0b384" transform="translate(0 0)" d="m 12,64 v -4 h 1 v 4 z"></path><path fill="#a0b384" transform="translate(0 0)" d="m 15,64 v -4 h 1 v 4 z"></path><path fill="#a0b384" transform="translate(0 0)" d="m 40,63 v -4 h 1 v 4 z"></path><path fill="#a0b384" transform="translate(0 0)" d="m 43,63 v -4 h 1 v 4 z"></path><path fill="#a0b384" transform="translate(0 0)" d="m 4,54 v -4 h 1 v 4 z"></path><path fill="#a0b384" transform="translate(0 0)" d="m 7,54 v -4 h 1 v 4 z"></path><path fill="#a0b384" transform="translate(0 0)" d="m 26,40 v -4 h 1 v 4 z"></path><path fill="#a0b384" transform="translate(0 0)" d="m 29,40 v -4 h 1 v 4 z"></path><path fill="#a0b384" transform="translate(0 0)" d="m 53,19 v -4 h 1 v 4 z"></path><path fill="#a0b384" transform="translate(0 0)" d="m 56,19 v -4 h 1 v 4 z"></path><path fill="#a0b384" transform="translate(0 0)" d="m 56,36 v -4 h 1 v 4 z"></path><path fill="#a0b384" transform="translate(0 0)" d="m 59,36 v -4 h 1 v 4 z"></path><path fill="#a0b384" transform="translate(0 0)" d="m 54,58 v -4 h 1 v 4 z"></path><path fill="#a0b384" transform="translate(0 0)" d="m 57,58 v -4 h 1 v 4 z"></path><path fill="#a0b384" transform="translate(0 0)" d="m 38,47 v -4 h 1 v 4 z"></path><path fill="#a0b384" transform="translate(0 0)" d="m 41,47 v -4 h 1 v 4 z"></path><path fill="#a0b384" transform="translate(0 0)" d="m 22,55 v -4 h 1 v 4 z"></path><path fill="#a0b384" transform="translate(0 0)" d="m 25,55 v -4 h 1 v 4 z"></path><path fill="#a0b384" transform="translate(0 0)" d="m 4,42 v -4 h 1 v 4 z"></path><path fill="#a0b384" transform="translate(0 0)" d="m 7,42 v -4 h 1 v 4 z"></path><path fill="#a0b384" transform="translate(0 0)" d="M 18,4 V 0 h 1 v 4 z"></path><path fill="#a0b384" transform="translate(0 0)" d="M 21,4 V 0 h 1 v 4 z"></path><path fill="#a0b384" transform="translate(0 0)" d="M 10,12 V 8 h 1 v 4 z"></path><path fill="#a0b384" transform="translate(0 0)" d="M 13,12 V 8 h 1 v 4 z"></path><path fill="#a0b384" transform="translate(0 0)" d="M 24,9 V 5 h 1 v 4 z"></path><path fill="#a0b384" transform="translate(0 0)" d="M 27,9 V 5 h 1 v 4 z"></path><path fill="#a0b384" transform="translate(0 0)" d="M 36,5 V 1 h 1 v 4 z"></path><path fill="#a0b384" transform="translate(0 0)" d="M 39,5 V 1 h 1 v 4 z"></path><path fill="#a0b384" transform="translate(0 0)" d="M 45,9 V 5 h 1 v 4 z"></path><path fill="#a0b384" transform="translate(0 0)" d="M 48,9 V 5 h 1 v 4 z"></path><path fill="#a0b384" transform="translate(0 0)" d="M 58,12 V 8 h 1 v 4 z"></path><path fill="#a0b384" transform="translate(0 0)" d="M 61,12 V 8 h 1 v 4 z"></path><path fill="#a0b384" transform="translate(0 0)" d="m 44,17 v -4 h 1 v 4 z"></path><path fill="#a0b384" transform="translate(0 0)" d="m 47,17 v -4 h 1 v 4 z"></path><path fill="#a0b384" transform="translate(0 0)" d="m 33,22 v -4 h 1 v 4 z"></path><path fill="#a0b384" transform="translate(0 0)" d="m 36,22 v -4 h 1 v 4 z"></path><path fill="#a0b384" transform="translate(0 0)" d="m 8,20 v -4 h 1 v 4 z"></path><path fill="#a0b384" transform="translate(0 0)" d="m 11,20 v -4 h 1 v 4 z"></path><path fill="#a0b384" transform="translate(0 0)" d="m 0,27 v -4 h 1 v 4 z"></path><path fill="#a0b384" transform="translate(0 0)" d="m 3,27 v -4 h 1 v 4 z"></path><path fill="#a0b384" transform="translate(0 0)" d="m 56,27 v -4 h 1 v 4 z"></path><path fill="#a0b384" transform="translate(0 0)" d="m 59,27 v -4 h 1 v 4 z"></path><path fill="#a0b384" transform="translate(0 0)" d="m 23,27 v -4 h 1 v 4 z"></path><path fill="#a0b384" transform="translate(0 0)" d="m 26,27 v -4 h 1 v 4 z"></path><path fill="#a0b384" transform="translate(0 0)" d="m 32,31 v -4 h 1 v 4 z"></path><path fill="#a0b384" transform="translate(0 0)" d="m 35,31 v -4 h 1 v 4 z"></path><path fill="#a0b384" transform="translate(0 0)" d="m 48,34 v -4 h 1 v 4 z"></path><path fill="#a0b384" transform="translate(0 0)" d="m 51,34 v -4 h 1 v 4 z"></path><path fill="#a0b384" transform="translate(0 0)" d="m 13,41 v -4 h 1 v 4 z"></path><path fill="#a0b384" transform="translate(0 0)" d="m 16,41 v -4 h 1 v 4 z"></path><path fill="#a0b384" transform="translate(0 0)" d="m 4,34 v -4 h 1 v 4 z"></path><path fill="#a0b384" transform="translate(0 0)" d="m 7,34 v -4 h 1 v 4 z"></path><path fill="#a0b384" transform="translate(0 0)" d="m 9,48 v -4 h 1 v 4 z"></path><path fill="#a0b384" transform="translate(0 0)" d="m 12,48 v -4 h 1 v 4 z"></path><path fill="#a0b384" transform="translate(0 0)" d="m 20,47 v -4 h 1 v 4 z"></path><path fill="#a0b384" transform="translate(0 0)" d="m 23,47 v -4 h 1 v 4 z"></path><path fill="#a0b384" transform="translate(0 0)" d="m 19,35 v -4 h 1 v 4 z"></path><path fill="#a0b384" transform="translate(0 0)" d="m 22,35 v -4 h 1 v 4 z"></path><path fill="#a0b384" transform="translate(0 0)" d="m 27,61 v -4 h 1 v 4 z"></path><path fill="#a0b384" transform="translate(0 0)" d="m 30,61 v -4 h 1 v 4 z"></path><path fill="#a0b384" transform="translate(0 0)" d="m 2,62 v -4 h 1 v 4 z"></path><path fill="#a0b384" transform="translate(0 0)" d="m 5,62 v -4 h 1 v 4 z"></path><path fill="#a0b384" transform="translate(0 0)" d="m 43,56 v -4 h 1 v 4 z"></path><path fill="#a0b384" transform="translate(0 0)" d="m 46,56 v -4 h 1 v 4 z"></path><path fill="#a0b384" transform="translate(0 0)" d="m 31,52 v -4 h 1 v 4 z"></path><path fill="#a0b384" transform="translate(0 0)" d="m 34,52 v -4 h 1 v 4 z"></path><path fill="#a0b384" transform="translate(0 0)" d="m 35,39 v -4 h 1 v 4 z"></path><path fill="#a0b384" transform="translate(0 0)" d="m 38,39 v -4 h 1 v 4 z"></path><path fill="#a0b384" transform="translate(0 0)" d="m 58,51 v -4 h 1 v 4 z"></path><path fill="#a0b384" transform="translate(0 0)" d="m 61,51 v -4 h 1 v 4 z"></path><path fill="#a0b384" transform="translate(0 0)" d="m 48,49 v -4 h 1 v 4 z"></path><path fill="#a0b384" transform="translate(0 0)" d="m 51,49 v -4 h 1 v 4 z"></path><path fill="#a0b384" transform="translate(0 0)" d="m 44,41 v -4 h 1 v 4 z"></path><path fill="#a0b384" transform="translate(0 0)" d="m 47,41 v -4 h 1 v 4 z"></path><path fill="#a0b384" transform="translate(0 0)" d="m 55,43 v -4 h 1 v 4 z"></path><path fill="#a0b384" transform="translate(0 0)" d="m 58,43 v -4 h 1 v 4 z"></path><path fill="#a0b384" transform="translate(0 0)" d="m 1,18 v -4 h 1 v 4 z"></path><path fill="#a0b384" transform="translate(0 0)" d="m 4,18 v -4 h 1 v 4 z"></path></svg>