<svg xmlns="http://www.w3.org/2000/svg" viewBox="0 0 20 20" height="20" width="20"><title>substation.svg</title><rect fill="none" x="0" y="0" width="20" height="20"></rect><path fill="#ffffff" transform="translate(2 2)" d="M 4,15 V 8 h 3 l -0.7501503,-2.1671675 3,-1 L 8.6038035,3 6.3753757,3.7495492 8,0 11.77037,2 9.7287283,2.6864857 10.722718,5.6098141 7.7453418,6.5675715 8.2914914,8 H 11 v 7 H 10 V 9 H 5 v 5 h 5 v 1 z" style="stroke-linejoin:round;stroke-miterlimit:4;" stroke="#ffffff" stroke-width="2"></path><path fill="#000" transform="translate(2 2)" d="M 4,15 V 8 h 3 l -0.7501503,-2.1671675 3,-1 L 8.6038035,3 6.3753757,3.7495492 8,0 11.77037,2 9.7287283,2.6864857 10.722718,5.6098141 7.7453418,6.5675715 8.2914914,8 H 11 v 7 H 10 V 9 H 5 v 5 h 5 v 1 z"></path></svg>