<svg xmlns="http://www.w3.org/2000/svg" viewBox="0 0 21 21" height="21" width="21"><title>triangle.svg</title><rect fill="none" x="0" y="0" width="21" height="21"></rect><path fill="#ffffff" transform="translate(2 2)" d="M 3,11 8,3 v 2 l -4,6 z" style="stroke-linejoin:round;stroke-miterlimit:4;" stroke="#ffffff" stroke-width="2"></path><path fill="#ffffff" transform="translate(2 2)" d="M 12,11 8,5 V 3 l 5,8 z" style="stroke-linejoin:round;stroke-miterlimit:4;" stroke="#ffffff" stroke-width="2"></path><path fill="#ffffff" transform="translate(2 2)" d="m 4,10 h 8 v 1 H 4 Z" style="stroke-linejoin:round;stroke-miterlimit:4;" stroke="#ffffff" stroke-width="2"></path><path fill="#ffffff" transform="translate(2 2)" d="m 7.4957627,7.5338983 c 0.2301744,-0.2352104 0.7570083,-0.2351071 0.9872883,0 C 8.721289,7.7771301 8.710373,8.322356 8.461861,8.555085 8.231732,8.770601 7.7372908,8.738222 7.5169462,8.512715 7.2888755,8.279291 7.2675106,7.7671444 7.4957627,7.5338983 Z" style="stroke-linejoin:round;stroke-miterlimit:4;" stroke="#ffffff" stroke-width="2"></path><path fill="#000" transform="translate(2 2)" d="M 3,11 8,3 v 2 l -4,6 z"></path><path fill="#000" transform="translate(2 2)" d="M 12,11 8,5 V 3 l 5,8 z"></path><path fill="#000" transform="translate(2 2)" d="m 4,10 h 8 v 1 H 4 Z"></path><path fill="#000" transform="translate(2 2)" d="m 7.4957627,7.5338983 c 0.2301744,-0.2352104 0.7570083,-0.2351071 0.9872883,0 C 8.721289,7.7771301 8.710373,8.322356 8.461861,8.555085 8.231732,8.770601 7.7372908,8.738222 7.5169462,8.512715 7.2888755,8.279291 7.2675106,7.7671444 7.4957627,7.5338983 Z"></path></svg>