<svg xmlns="http://www.w3.org/2000/svg" viewBox="0 0 20 20" height="20" width="20"><title>turf.svg</title><rect fill="none" x="0" y="0" width="20" height="20"></rect><path fill="#ffffff" transform="translate(2 2)" d="M 15,12 H 0 V 7 h 1 v 4 H 7 V 8 H 1 V 7 H 3 V 3 h 1 v 4 h 7 V 4 H 4 V 3 h 8 v 4 h 2 V 8 H 8 v 3 h 6 V 7 h 1 z" style="stroke-linejoin:round;stroke-miterlimit:4;" stroke="#ffffff" stroke-width="2"></path><path fill="#000" transform="translate(2 2)" d="M 15,12 H 0 V 7 h 1 v 4 H 7 V 8 H 1 V 7 H 3 V 3 h 1 v 4 h 7 V 4 H 4 V 3 h 8 v 4 h 2 V 8 H 8 v 3 h 6 V 7 h 1 z"></path></svg>