<svg xmlns="http://www.w3.org/2000/svg" viewBox="0 0 20 20" height="20" width="20"><title>windmill.svg</title><rect fill="none" x="0" y="0" width="20" height="20"></rect><path fill="#ffffff" transform="translate(2 2)" d="M 3,0 7.4746713,3.0630635 12,0 13,1 8.5157118,3.5693746 13,6 12,7 8,4.5063111 10,15 H 5 L 7,4.5271319 3,7 2,6 6.4336307,3.527733 2,1 Z" style="stroke-linejoin:round;stroke-miterlimit:4;" stroke="#ffffff" stroke-width="2"></path><path fill="#000" transform="translate(2 2)" d="M 3,0 7.4746713,3.0630635 12,0 13,1 8.5157118,3.5693746 13,6 12,7 8,4.5063111 10,15 H 5 L 7,4.5271319 3,7 2,6 6.4336307,3.527733 2,1 Z"></path></svg>