<svg xmlns="http://www.w3.org/2000/svg" viewBox="0 0 20 20" height="20" width="20"><title>worship_christian.svg</title><rect fill="none" x="0" y="0" width="20" height="20"></rect><path fill="#ffffff" transform="translate(2 2)" d="M 7,5.5205203 5,0 h 5 L 8,5.5205203 Z" style="stroke-linejoin:round;stroke-miterlimit:4;" stroke="#ffffff" stroke-width="2"></path><path fill="#ffffff" transform="translate(2 2)" d="M 9.5003005,7 15,5 v 5 L 9.5419422,8 Z" style="stroke-linejoin:round;stroke-miterlimit:4;" stroke="#ffffff" stroke-width="2"></path><path fill="#ffffff" transform="translate(2 2)" d="M 0,5 5.5413411,7 5.5621619,8 0,10 Z" style="stroke-linejoin:round;stroke-miterlimit:4;" stroke="#ffffff" stroke-width="2"></path><path fill="#ffffff" transform="translate(2 2)" d="M 5,15 7,9.4586589 8,9.4378381 10,15 Z" style="stroke-linejoin:round;stroke-miterlimit:4;" stroke="#ffffff" stroke-width="2"></path><path fill="#ffffff" transform="translate(2 2)" d="m 7.4991881,4.9999999 a 2.4845937,2.501503 0 1 1 0,5.0030061 2.4845937,2.5015031 0 0 1 0,-5.0030061 z m 0,0.5560007 a 1.9323512,1.9455022 0 1 0 0,3.8910043 1.9323512,1.9455022 0 0 0 0,-3.8910043 z" style="stroke-linejoin:round;stroke-miterlimit:4;" stroke="#ffffff" stroke-width="2"></path><path fill="#000" transform="translate(2 2)" d="M 7,5.5205203 5,0 h 5 L 8,5.5205203 Z"></path><path fill="#000" transform="translate(2 2)" d="M 9.5003005,7 15,5 v 5 L 9.5419422,8 Z"></path><path fill="#000" transform="translate(2 2)" d="M 0,5 5.5413411,7 5.5621619,8 0,10 Z"></path><path fill="#000" transform="translate(2 2)" d="M 5,15 7,9.4586589 8,9.4378381 10,15 Z"></path><path fill="#000" transform="translate(2 2)" d="m 7.4991881,4.9999999 a 2.4845937,2.501503 0 1 1 0,5.0030061 2.4845937,2.5015031 0 0 1 0,-5.0030061 z m 0,0.5560007 a 1.9323512,1.9455022 0 1 0 0,3.8910043 1.9323512,1.9455022 0 0 0 0,-3.8910043 z"></path></svg>