<svg xmlns="http://www.w3.org/2000/svg" width="20" height="20" viewBox="0 0 20 20"><title>worship_christian.svg</title><rect width="20" height="20" x="0" y="0" fill="none"/><path fill="#fff" stroke="#fff" stroke-width="2" d="M 7,5.5205203 5,0 h 5 L 8,5.5205203 Z" transform="translate(2 2)" style="stroke-linejoin:round;stroke-miterlimit:4"/><path fill="#fff" stroke="#fff" stroke-width="2" d="M 9.5003005,7 15,5 v 5 L 9.5419422,8 Z" transform="translate(2 2)" style="stroke-linejoin:round;stroke-miterlimit:4"/><path fill="#fff" stroke="#fff" stroke-width="2" d="M 0,5 5.5413411,7 5.5621619,8 0,10 Z" transform="translate(2 2)" style="stroke-linejoin:round;stroke-miterlimit:4"/><path fill="#fff" stroke="#fff" stroke-width="2" d="M 5,15 7,9.4586589 8,9.4378381 10,15 Z" transform="translate(2 2)" style="stroke-linejoin:round;stroke-miterlimit:4"/><path fill="#fff" stroke="#fff" stroke-width="2" d="m 7.4991881,4.9999999 a 2.4845937,2.501503 0 1 1 0,5.0030061 2.4845937,2.5015031 0 0 1 0,-5.0030061 z m 0,0.5560007 a 1.9323512,1.9455022 0 1 0 0,3.8910043 1.9323512,1.9455022 0 0 0 0,-3.8910043 z" transform="translate(2 2)" style="stroke-linejoin:round;stroke-miterlimit:4"/><path fill="#000" d="M 7,5.5205203 5,0 h 5 L 8,5.5205203 Z" transform="translate(2 2)"/><path fill="#000" d="M 9.5003005,7 15,5 v 5 L 9.5419422,8 Z" transform="translate(2 2)"/><path fill="#000" d="M 0,5 5.5413411,7 5.5621619,8 0,10 Z" transform="translate(2 2)"/><path fill="#000" d="M 5,15 7,9.4586589 8,9.4378381 10,15 Z" transform="translate(2 2)"/><path fill="#000" d="m 7.4991881,4.9999999 a 2.4845937,2.501503 0 1 1 0,5.0030061 2.4845937,2.5015031 0 0 1 0,-5.0030061 z m 0,0.5560007 a 1.9323512,1.9455022 0 1 0 0,3.8910043 1.9323512,1.9455022 0 0 0 0,-3.8910043 z" transform="translate(2 2)"/></svg>