<svg xmlns="http://www.w3.org/2000/svg" width="17" height="17" viewBox="0 0 17 17"><title>school-11.svg</title><rect width="17" height="17" x="0" y="0" fill="none"/><path fill="rgba(255,255,255,0.25)" stroke="rgba(255,255,255,0.25)" stroke-width="2" d="M8.5,9V8H10V6H7.5V5H10V3H8.5V2H10V1H6v9h4V9H8.5z M4,7H1V1h3V7z M4,8l-1.5,2L1,8H4z" transform="translate(3 3)" style="stroke-linejoin:round;stroke-miterlimit:4px"/><path fill="#444" d="M8.5,9V8H10V6H7.5V5H10V3H8.5V2H10V1H6v9h4V9H8.5z M4,7H1V1h3V7z M4,8l-1.5,2L1,8H4z" transform="translate(3 3)"/></svg>