<svg xmlns="http://www.w3.org/2000/svg" width="17" height="17" viewBox="0 0 17 17"><title>suitcase-11.svg</title><rect width="17" height="17" x="0" y="0" fill="none"/><path fill="rgba(255,255,255,0.25)" stroke="rgba(255,255,255,0.25)" stroke-width="2" d="M8,3V1.578L7.3601,1H3.6399	L3,1.7477V3H1.5L1,3.5v6L1.5,10h8L10,9.5v-6L9.5,3H8z M4,2h3v1H4V2z" transform="translate(3 3)" style="stroke-linejoin:round;stroke-miterlimit:4px"/><path fill="#444" d="M8,3V1.578L7.3601,1H3.6399	L3,1.7477V3H1.5L1,3.5v6L1.5,10h8L10,9.5v-6L9.5,3H8z M4,2h3v1H4V2z" transform="translate(3 3)"/></svg>