<svg xmlns="http://www.w3.org/2000/svg" width="17" height="17" viewBox="0 0 17 17"><title>triangle-11.svg</title><rect width="17" height="17" x="0" y="0" fill="none"/><path fill="rgba(255,255,255,0.25)" stroke="rgba(255,255,255,0.25)" stroke-width="2" d="M5.5174,1.2315	C5.3163,1.2253,5.1276,1.328,5.024,1.5l-4,6.6598C0.8013,8.5293,1.0679,8.9999,1.5,9h8c0.4321-0.0001,0.6987-0.4707,0.476-0.8402	l-4-6.6598C5.8787,1.3386,5.706,1.2375,5.5174,1.2315z" transform="translate(3 3)" style="stroke-linejoin:round;stroke-miterlimit:4px"/><path fill="#444" d="M5.5174,1.2315	C5.3163,1.2253,5.1276,1.328,5.024,1.5l-4,6.6598C0.8013,8.5293,1.0679,8.9999,1.5,9h8c0.4321-0.0001,0.6987-0.4707,0.476-0.8402	l-4-6.6598C5.8787,1.3386,5.706,1.2375,5.5174,1.2315z" transform="translate(3 3)"/></svg>