<svg xmlns="http://www.w3.org/2000/svg" width="20" height="20" viewBox="0 0 20 20"><title>chimney.svg</title><rect width="20" height="20" x="0" y="0" fill="none"/><path fill="#fff" stroke="#fff" stroke-width="2" d="M 5,15 V 14 H 6 V 4 h 2 v 10 h 1 v 1 z" transform="translate(2 2)" style="stroke-linejoin:round;stroke-miterlimit:4"/><path fill="#fff" stroke="#fff" stroke-width="2" d="M 8,2 V 3 H 9 V 2 Z" transform="translate(2 2)" style="stroke-linejoin:round;stroke-miterlimit:4"/><path fill="#fff" stroke="#fff" stroke-width="2" d="M 9,1 V 0 h 1 l 1,1 v 1 h -1 z" transform="translate(2 2)" style="stroke-linejoin:round;stroke-miterlimit:4"/><path fill="#000" d="M 5,15 V 14 H 6 V 4 h 2 v 10 h 1 v 1 z" transform="translate(2 2)"/><path fill="#000" d="M 8,2 V 3 H 9 V 2 Z" transform="translate(2 2)"/><path fill="#000" d="M 9,1 V 0 h 1 l 1,1 v 1 h -1 z" transform="translate(2 2)"/></svg>