<svg xmlns="http://www.w3.org/2000/svg" width="20" height="20" viewBox="0 0 20 20"><title>light_tower.svg</title><rect width="20" height="20" x="0" y="0" fill="none"/><path fill="#fff" stroke="#fff" stroke-width="2" d="m 7.5094558,8 a 3.4945458,3.501503 0 1 1 0,7.003006 3.4945458,3.5015031 0 0 1 0,-7.003006 z m 0,0.7782674 a 2.7178246,2.7232355 0 1 0 0,5.4464706 2.7178246,2.7232355 0 0 0 0,-5.4464706 z" transform="translate(2 2)" style="stroke-linejoin:round;stroke-miterlimit:4"/><path fill="#fff" stroke="#fff" stroke-width="2" d="M 4.3307288,10 7.5371337,0 10.660255,10 H 10 L 7.5163129,2 5,10 Z" transform="translate(2 2)" style="stroke-linejoin:round;stroke-miterlimit:4"/><path fill="#000" d="m 7.5094558,8 a 3.4945458,3.501503 0 1 1 0,7.003006 3.4945458,3.5015031 0 0 1 0,-7.003006 z m 0,0.7782674 a 2.7178246,2.7232355 0 1 0 0,5.4464706 2.7178246,2.7232355 0 0 0 0,-5.4464706 z" transform="translate(2 2)"/><path fill="#000" d="M 4.3307288,10 7.5371337,0 10.660255,10 H 10 L 7.5163129,2 5,10 Z" transform="translate(2 2)"/></svg>