<svg xmlns="http://www.w3.org/2000/svg" width="21" height="21" viewBox="0 0 21 21"><title>triangle.svg</title><rect width="21" height="21" x="0" y="0" fill="none"/><path fill="#fff" stroke="#fff" stroke-width="2" d="M 3,11 8,3 v 2 l -4,6 z" transform="translate(2 2)" style="stroke-linejoin:round;stroke-miterlimit:4"/><path fill="#fff" stroke="#fff" stroke-width="2" d="M 12,11 8,5 V 3 l 5,8 z" transform="translate(2 2)" style="stroke-linejoin:round;stroke-miterlimit:4"/><path fill="#fff" stroke="#fff" stroke-width="2" d="m 4,10 h 8 v 1 H 4 Z" transform="translate(2 2)" style="stroke-linejoin:round;stroke-miterlimit:4"/><path fill="#fff" stroke="#fff" stroke-width="2" d="m 7.4957627,7.5338983 c 0.2301744,-0.2352104 0.7570083,-0.2351071 0.9872883,0 C 8.721289,7.7771301 8.710373,8.322356 8.461861,8.555085 8.231732,8.770601 7.7372908,8.738222 7.5169462,8.512715 7.2888755,8.279291 7.2675106,7.7671444 7.4957627,7.5338983 Z" transform="translate(2 2)" style="stroke-linejoin:round;stroke-miterlimit:4"/><path fill="#000" d="M 3,11 8,3 v 2 l -4,6 z" transform="translate(2 2)"/><path fill="#000" d="M 12,11 8,5 V 3 l 5,8 z" transform="translate(2 2)"/><path fill="#000" d="m 4,10 h 8 v 1 H 4 Z" transform="translate(2 2)"/><path fill="#000" d="m 7.4957627,7.5338983 c 0.2301744,-0.2352104 0.7570083,-0.2351071 0.9872883,0 C 8.721289,7.7771301 8.710373,8.322356 8.461861,8.555085 8.231732,8.770601 7.7372908,8.738222 7.5169462,8.512715 7.2888755,8.279291 7.2675106,7.7671444 7.4957627,7.5338983 Z" transform="translate(2 2)"/></svg>