<svg xmlns="http://www.w3.org/2000/svg" width="20" height="20" viewBox="0 0 20 20"><title>turf.svg</title><rect width="20" height="20" x="0" y="0" fill="none"/><path fill="#fff" stroke="#fff" stroke-width="2" d="M 15,12 H 0 V 7 h 1 v 4 H 7 V 8 H 1 V 7 H 3 V 3 h 1 v 4 h 7 V 4 H 4 V 3 h 8 v 4 h 2 V 8 H 8 v 3 h 6 V 7 h 1 z" transform="translate(2 2)" style="stroke-linejoin:round;stroke-miterlimit:4"/><path fill="#000" d="M 15,12 H 0 V 7 h 1 v 4 H 7 V 8 H 1 V 7 H 3 V 3 h 1 v 4 h 7 V 4 H 4 V 3 h 8 v 4 h 2 V 8 H 8 v 3 h 6 V 7 h 1 z" transform="translate(2 2)"/></svg>