<svg xmlns="http://www.w3.org/2000/svg" width="20" height="20" viewBox="0 0 20 20"><title>windmill.svg</title><rect width="20" height="20" x="0" y="0" fill="none"/><path fill="#fff" stroke="#fff" stroke-width="2" d="M 3,0 7.4746713,3.0630635 12,0 13,1 8.5157118,3.5693746 13,6 12,7 8,4.5063111 10,15 H 5 L 7,4.5271319 3,7 2,6 6.4336307,3.527733 2,1 Z" transform="translate(2 2)" style="stroke-linejoin:round;stroke-miterlimit:4"/><path fill="#000" d="M 3,0 7.4746713,3.0630635 12,0 13,1 8.5157118,3.5693746 13,6 12,7 8,4.5063111 10,15 H 5 L 7,4.5271319 3,7 2,6 6.4336307,3.527733 2,1 Z" transform="translate(2 2)"/></svg>