<svg xmlns="http://www.w3.org/2000/svg" width="20" height="20" viewBox="0 0 20 20"><title>worship_other.svg</title><rect width="20" height="20" x="0" y="0" fill="none"/><path fill="#fff" stroke="#fff" stroke-width="2" d="m 7.5094558,8 c 4.6593922,-1e-7 4.6593922,7.003006 0,7.003006 -4.6582785,-0.0011 -4.6582785,-7.0041215 0,-7.003006 z" transform="translate(2 2)" style="stroke-linejoin:round;stroke-miterlimit:4"/><path fill="#fff" stroke="#fff" stroke-width="2" d="M 7,9 V 1 H 4 V 0 c 0,0 7,0 7,0 V 1 H 8 v 8 z" transform="translate(2 2)" style="stroke-linejoin:round;stroke-miterlimit:4"/><path fill="#000" d="m 7.5094558,8 c 4.6593922,-1e-7 4.6593922,7.003006 0,7.003006 -4.6582785,-0.0011 -4.6582785,-7.0041215 0,-7.003006 z" transform="translate(2 2)"/><path fill="#000" d="M 7,9 V 1 H 4 V 0 c 0,0 7,0 7,0 V 1 H 8 v 8 z" transform="translate(2 2)"/></svg>