<svg xmlns="http://www.w3.org/2000/svg" width="17" height="17" viewBox="0 0 17 17"><title>attraction-11.svg</title><rect width="17" height="17" x="0" y="0" fill="none"/><path fill="rgba(255,255,255,0.25)" stroke="rgba(255,255,255,0.25)" stroke-width="2" d="M4.5,1.5c0,0-0.5,0-0.7,0.5L3.5,2.5H1c-0.6,0-1,0.4-1,1v5c0,0.6,0.4,1,1,1h9	c0.6,0,1-0.4,1-1v-5c0-0.6-0.4-1-1-1H7.5L7.2,2C7,1.5,6.5,1.5,6.5,1.5H4.5z M5.5,3.5C6.9,3.5,8,4.6,8,6S6.9,8.5,5.5,8.5S3,7.4,3,6	S4.1,3.5,5.5,3.5z M5.5,5c-0.6,0-1,0.4-1,1s0.4,1,1,1s1-0.4,1-1S6.1,5,5.5,5z" transform="translate(3 3)" style="stroke-linejoin:round;stroke-miterlimit:4px"/><path fill="#444" d="M4.5,1.5c0,0-0.5,0-0.7,0.5L3.5,2.5H1c-0.6,0-1,0.4-1,1v5c0,0.6,0.4,1,1,1h9	c0.6,0,1-0.4,1-1v-5c0-0.6-0.4-1-1-1H7.5L7.2,2C7,1.5,6.5,1.5,6.5,1.5H4.5z M5.5,3.5C6.9,3.5,8,4.6,8,6S6.9,8.5,5.5,8.5S3,7.4,3,6	S4.1,3.5,5.5,3.5z M5.5,5c-0.6,0-1,0.4-1,1s0.4,1,1,1s1-0.4,1-1S6.1,5,5.5,5z" transform="translate(3 3)"/></svg>