<svg xmlns="http://www.w3.org/2000/svg" width="17" height="17" viewBox="0 0 17 17"><title>fire-station-11.svg</title><rect width="17" height="17" x="0" y="0" fill="none"/><path fill="rgba(255,255,255,0.25)" stroke="rgba(255,255,255,0.25)" stroke-width="2" d="M5.5,0l-2,4L2,2	C1.595,2.7121,0,4.1667,0,6c0,2.7001,2.7999,5,5.5,5S11,8.7001,11,6c0-1.8333-1.595-3.2879-2-4L7.5,4L5.5,0z M5.5,5.5	c0,0,2,1.585,2,3c0,0.6111-0.7778,1.2778-2,1.2778s-2-0.6667-2-1.2778C3.5,7.1336,5.5,5.5,5.5,5.5z" transform="translate(3 3)" style="stroke-linejoin:round;stroke-miterlimit:4px"/><path fill="#444" d="M5.5,0l-2,4L2,2	C1.595,2.7121,0,4.1667,0,6c0,2.7001,2.7999,5,5.5,5S11,8.7001,11,6c0-1.8333-1.595-3.2879-2-4L7.5,4L5.5,0z M5.5,5.5	c0,0,2,1.585,2,3c0,0.6111-0.7778,1.2778-2,1.2778s-2-0.6667-2-1.2778C3.5,7.1336,5.5,5.5,5.5,5.5z" transform="translate(3 3)"/></svg>