<svg xmlns="http://www.w3.org/2000/svg" width="17" height="17" viewBox="0 0 17 17"><title>marker-11.svg</title><rect width="17" height="17" x="0" y="0" fill="none"/><path fill="rgba(255,255,255,0.25)" stroke="rgba(255,255,255,0.25)" stroke-width="2" d="M5.5-0.0176c-1.7866,0-3.8711,1.0918-3.8711,3.8711	C1.6289,5.7393,4.6067,9.9082,5.5,11c0.7941-1.0918,3.871-5.1614,3.871-7.1466C9.371,1.0742,7.2866-0.0176,5.5-0.0176z" transform="translate(3 3)" style="stroke-linejoin:round;stroke-miterlimit:4px"/><path fill="#444" d="M5.5-0.0176c-1.7866,0-3.8711,1.0918-3.8711,3.8711	C1.6289,5.7393,4.6067,9.9082,5.5,11c0.7941-1.0918,3.871-5.1614,3.871-7.1466C9.371,1.0742,7.2866-0.0176,5.5-0.0176z" transform="translate(3 3)"/></svg>