<svg xmlns="http://www.w3.org/2000/svg" width="17" height="17" viewBox="0 0 17 17"><title>mountain-11.svg</title><rect width="17" height="17" x="0" y="0" fill="none"/><path fill="rgba(255,255,255,0.25)" stroke="rgba(255,255,255,0.25)" stroke-width="2" d="M5.5176,1.2324C5.3165,1.2262,5.1271,1.328,5.0234,1.5l-4,6.6602	C0.8007,8.5296,1.0679,8.9999,1.5,9h8c0.4321-0.0001,0.6993-0.4704,0.4766-0.8398l-4-6.6602	C5.8793,1.3386,5.7062,1.2384,5.5176,1.2324z M5.5195,2.1543L8.4316,7H7.7598L6.416,5.7734L5.5195,7L4.625,5.7734L3.2812,7H2.6094	C2.6094,7,5.5195,2.1543,5.5195,2.1543z" transform="translate(3 3)" style="stroke-linejoin:round;stroke-miterlimit:4px"/><path fill="#444" d="M5.5176,1.2324C5.3165,1.2262,5.1271,1.328,5.0234,1.5l-4,6.6602	C0.8007,8.5296,1.0679,8.9999,1.5,9h8c0.4321-0.0001,0.6993-0.4704,0.4766-0.8398l-4-6.6602	C5.8793,1.3386,5.7062,1.2384,5.5176,1.2324z M5.5195,2.1543L8.4316,7H7.7598L6.416,5.7734L5.5195,7L4.625,5.7734L3.2812,7H2.6094	C2.6094,7,5.5195,2.1543,5.5195,2.1543z" transform="translate(3 3)"/></svg>