<svg xmlns="http://www.w3.org/2000/svg" xmlns:svg="http://www.w3.org/2000/svg" id="svg3844" width="21" height="17" version="1.1"><metadata id="metadata3849"/><g id="layer1" transform="translate(-299,-901.36218)"><path style="color:#000;fill:#fff;fill-opacity:1;fill-rule:evenodd;stroke:#4d4d4d;stroke-width:1;stroke-linecap:round;stroke-linejoin:round;marker:none;visibility:visible;display:inline;overflow:visible;enable-background:accumulate" id="path3799" d="m 1.5,1 -3,2.5 c 0.5,0.5 2,1.5 1,3.5 -1,2 -1.5,5 0.5,7 2.5,2.5 7.5,0.5 8.5,2.5 1,-2 6,0 8.5,-2.5 2,-2 1.5,-5 0.5,-7 -1,-2 0.5,-3 1,-3.5 L 15.5,1 c -2,1 -4.5,2 -7,0 -2.5,2 -5,1 -7,0 z" clip-path="none" transform="translate(301,901.36218)"/><rect style="opacity:0;color:#000;fill:#000;fill-opacity:1;fill-rule:nonzero;stroke:none;stroke-width:1;marker:none;visibility:visible;display:inline;overflow:visible;enable-background:accumulate" id="rect3803" width="21" height="17" x="299" y="901.362"/></g></svg>